# xmcd
#
# Track frame offsets:
#	150
#	17435
#	31830
#	49783
#	70982
#	87821
#	106146
#	121013
#	134455
#	150398
#	170179
#	183795
#	201015
#	221952
#	236459
#	252994
#	274759
#	287480
#	297919
#	311796
#	335221
#	352618
#
# Disc length: 4803
#
# Revision: 1
# Processed by: cddbd v1.5.1PL0 Copyright (c) Steve Scherf et al.
# Submitted via: EZCDDA 4.3.3.2
# Normalized: r0:DSETVAR1,TDELIM( - )
#
DISCID=3d12c116
DTITLE=Various Artist - ROMANTIC COLLECTION - WOMAN IN LOVE
DYEAR=1900
DGENRE=
TTITLE0=The Four Ases - Woman In Love
TTITLE1=Andy Williams - Where Do I Begin (Love Story)
TTITLE2=John Lennon - I`m Losing You
TTITLE3=Paul Anka - Mejor Deck Adios
TTITLE4=Gilbert o`Sullivan - Ooh Baby
TTITLE5=Julian Lennon - I Dont Wanna Know
TTITLE6=Supermax - Camilo
TTITLE7=Jefferson Airplan - Lather
TTITLE8=Mungo Jerry - In The Summertime
TTITLE9=John Secada - Stop
TTITLE10=Gilbert o`Sullivan - Clair
TTITLE11=A La Carte - Wanted (Jean De Voleur)
TTITLE12=Earth, Wind and Fire - Fantasy
TTITLE13=The Ventures - Harlem Nocturne
TTITLE14=Santana - Black Magic Woman
TTITLE15=Antonella Ruggiero - Vacanze Romane
TTITLE16=Ray Charles - Yesterday
TTITLE17=Timi Yuro - Smoke Gets In Your Eyes
TTITLE18=The Hollies - Tell Me To My Face
TTITLE19=Santa Esmeralda - You're My Everything
TTITLE20=Donna Summer - Could It Be Magic
TTITLE21=The Ventures - Ginchy
EXTD=
EXTT0=
EXTT1=
EXTT2=
EXTT3=
EXTT4=
EXTT5=
EXTT6=
EXTT7=
EXTT8=
EXTT9=
EXTT10=
EXTT11=
EXTT12=
EXTT13=
EXTT14=
EXTT15=
EXTT16=
EXTT17=
EXTT18=
EXTT19=
EXTT20=
EXTT21=
PLAYORDER=
